<?xml version="1.0" standalone="no"?>
<!DOCTYPE svg PUBLIC "-//W3C//DTD SVG 20010904//EN"
 "http://www.w3.org/TR/2001/REC-SVG-20010904/DTD/svg10.dtd">
<svg version="1.0" xmlns="http://www.w3.org/2000/svg"
 width="1120.000000pt" height="1120.000000pt" viewBox="0 0 1120.000000 1120.000000"
 preserveAspectRatio="xMidYMid meet">

<g transform="translate(0.000000,1120.000000) scale(0.100000,-0.100000)"
fill="#000000" stroke="none">
<path d="M0 5600 l0 -5600 5600 0 5600 0 0 5600 0 5600 -5600 0 -5600 0 0
-5600z m5830 1715 c124 -26 199 -53 315 -110 303 -149 540 -422 644 -742 44
-138 56 -215 56 -373 -1 -279 -79 -517 -240 -732 -173 -229 -429 -390 -725
-454 -104 -22 -348 -30 -463 -14 -258 35 -489 148 -688 337 -246 235 -370 504
-385 838 -16 347 103 662 341 901 191 192 431 316 695 358 117 19 342 15 450
-9z m-1560 -2851 c91 -37 115 -146 46 -203 -14 -12 -13 -17 14 -47 35 -40 46
-90 30 -138 -28 -85 -154 -120 -250 -71 -30 15 -76 97 -65 115 3 5 22 10 41
10 27 0 36 -5 44 -24 5 -13 19 -31 32 -40 63 -44 142 20 117 94 -13 35 -35 50
-77 50 -35 0 -55 20 -50 52 2 19 10 24 51 29 50 5 67 19 67 55 0 36 -24 58
-65 58 -30 0 -42 -6 -64 -33 -21 -26 -33 -32 -56 -29 -41 4 -44 36 -9 78 50
59 118 74 194 44z m-983 -94 c18 -52 45 -126 58 -165 25 -69 45 -103 45 -74 0
7 23 87 52 177 l52 163 59 -3 60 -3 -2 -234 c-1 -129 -4 -238 -6 -242 -3 -3
-21 -6 -42 -5 l-37 1 2 165 2 165 -41 -110 c-22 -60 -48 -132 -58 -160 -15
-43 -22 -50 -52 -56 -18 -4 -37 -5 -41 -3 -4 3 -26 62 -48 132 -68 212 -68
212 -69 29 l-1 -158 -42 3 -43 3 -3 225 c-1 123 0 231 3 238 3 9 21 12 61 10
l57 -3 34 -95z m651 76 c17 -9 44 -34 58 -56 44 -66 24 -149 -49 -204 -20 -14
-49 -22 -105 -26 l-77 -5 3 -81 3 -82 -43 -4 c-24 -3 -45 -3 -48 -1 -7 6 -12
453 -5 471 8 21 217 13 263 -12z m859 13 c33 -12 92 -66 103 -94 25 -65 25
-65 -23 -65 -41 0 -46 3 -55 29 -6 16 -22 37 -35 46 -34 22 -103 22 -126 1
-54 -49 -54 -255 0 -298 24 -20 76 -23 112 -7 13 6 32 26 40 45 14 29 22 34
52 34 45 0 52 -17 27 -67 -24 -47 -47 -68 -95 -88 -82 -34 -178 -4 -232 73
-29 42 -30 49 -30 145 0 56 3 114 7 129 10 34 53 86 93 109 34 21 117 25 162
8z m441 -17 c57 -41 85 -103 90 -199 9 -175 -75 -273 -223 -261 -63 5 -94 24
-141 85 -37 49 -49 124 -35 221 11 76 40 123 96 158 34 21 50 25 110 22 54 -2
78 -8 103 -26z m323 -124 l94 -153 3 153 3 152 44 0 45 0 0 -239 0 -239 -37
-5 c-21 -2 -41 -2 -45 0 -4 2 -48 73 -99 158 -50 85 -95 155 -100 155 -4 0 -5
-70 -2 -155 l6 -155 -41 0 c-23 0 -45 -1 -48 -2 -3 -2 -8 106 -10 240 l-4 242
49 0 48 0 94 -152z m367 -29 l60 -181 17 59 c9 32 33 112 54 178 l38 120 49 0
c38 0 49 -3 47 -15 -1 -8 -37 -115 -80 -237 l-78 -221 -48 -4 c-27 -1 -52 2
-57 7 -6 8 -147 420 -158 463 -3 8 11 12 47 12 l50 0 59 -181z m613 176 c3 -2
3 -20 1 -40 l-4 -35 -114 0 -114 0 0 -60 0 -60 100 0 100 0 0 -40 0 -40 -101
0 c-88 0 -100 -2 -95 -16 3 -9 6 -38 6 -65 l0 -49 115 0 115 0 0 -35 0 -34
-165 -3 -164 -3 -3 238 c-2 151 1 239 7 241 14 6 311 7 316 1z m316 -19 c53
-27 83 -72 83 -122 0 -55 -12 -80 -56 -119 l-34 -30 51 -88 c28 -48 50 -90 48
-92 -4 -3 -65 -8 -85 -6 -7 1 -33 42 -58 91 l-47 90 -39 0 -40 0 0 -91 0 -90
-47 3 -48 3 -1 230 c-1 127 1 234 4 239 8 15 235 0 269 -18z m481 -18 l3 -38
-53 0 c-29 0 -63 -3 -76 -6 l-23 -7 7 -193 7 -194 -52 0 -53 0 4 195 3 195
-45 1 c-77 2 -105 12 -108 37 -8 52 -7 53 195 50 l188 -3 3 -37z m315 35 c37
-6 38 -7 35 -42 -2 -20 -9 -37 -15 -37 -7 -1 -60 -2 -118 -3 l-105 -1 0 -55 0
-54 98 -3 97 -3 0 -35 0 -35 -97 -3 -98 -3 0 -66 0 -66 115 7 115 6 6 -25 c13
-53 8 -55 -166 -55 l-160 0 0 233 c0 129 3 237 7 240 8 9 235 9 286 0z m278
-3 c138 -26 185 -160 89 -251 l-38 -36 54 -91 53 -91 -36 -7 c-20 -4 -43 -2
-52 3 -9 5 -36 47 -61 91 l-44 82 -43 0 -43 0 0 -85 0 -85 -45 0 -45 0 0 234
c0 178 3 236 13 239 22 9 143 7 198 -3z m-2380 -717 c40 -31 89 -91 89 -108 0
-23 -65 -109 -99 -133 -61 -40 -66 -33 -69 113 -1 71 0 135 2 142 8 21 40 15
77 -14z m162 -61 c20 -18 22 -49 5 -89 -11 -28 -11 -27 -23 27 l-13 55 -1 -51
c-1 -56 -22 -87 -43 -66 -8 8 -7 21 6 50 13 28 15 50 10 76 -7 38 -6 38 17 26
13 -7 32 -19 42 -28z m-553 -2 c0 -20 -7 -20 -1019 -20 -669 0 -1022 3 -1026
10 -3 6 -3 15 0 20 4 7 357 10 1026 10 1012 0 1019 0 1019 -20z m2930 0 c0
-20 -7 -20 -1045 -20 -1038 0 -1045 0 -1045 20 0 20 7 20 1045 20 1038 0 1045
0 1045 -20z"/>
<path d="M5395 7209 c-351 -59 -662 -283 -814 -586 -222 -445 -134 -969 222
-1309 195 -187 420 -287 707 -316 216 -21 437 23 641 129 124 64 252 164 326
255 309 381 335 915 67 1335 -47 74 -175 206 -264 272 -141 105 -329 187 -498
216 -91 16 -303 18 -387 4z m598 -266 c78 -23 125 -50 184 -105 64 -61 99
-119 114 -187 11 -55 28 -64 69 -39 25 16 81 -10 107 -48 20 -30 30 -180 18
-260 -9 -64 -49 -104 -103 -104 -23 0 -45 6 -52 15 -7 8 -19 15 -26 15 -11 0
-14 -28 -14 -140 0 -120 2 -140 17 -148 12 -7 24 -5 41 6 31 21 88 6 115 -29
17 -23 19 -43 19 -147 -1 -129 -12 -171 -53 -193 -22 -11 -91 -8 -121 5 -15 7
-17 0 -20 -46 -3 -52 -4 -53 -35 -56 l-33 -3 0 543 c0 299 4 549 9 557 5 7 5
25 0 40 -4 14 -13 46 -19 70 -16 62 -95 143 -179 184 -63 30 -72 32 -181 32
-138 0 -190 -18 -263 -93 -73 -75 -79 -98 -71 -277 4 -84 4 -164 0 -179 -12
-48 -68 -57 -73 -11 -2 11 -6 45 -10 75 -5 30 -7 68 -5 84 3 24 7 27 28 23 29
-5 32 18 8 65 -45 87 39 246 169 322 93 55 235 66 360 29z m-877 -348 c23 -14
84 -73 134 -132 109 -127 209 -233 219 -233 10 0 81 76 211 229 120 140 157
166 231 159 58 -6 115 -45 135 -94 11 -27 14 -119 14 -467 l0 -434 -23 -34
c-32 -49 -80 -71 -145 -66 -41 3 -59 10 -83 33 -58 55 -59 62 -59 320 l0 237
-81 -106 c-107 -141 -168 -177 -242 -142 -34 16 -137 117 -210 205 l-37 45 0
-241 c0 -233 -1 -242 -22 -274 -35 -50 -71 -72 -129 -78 -63 -6 -110 15 -139
63 -19 30 -20 53 -20 479 -1 419 0 449 18 479 45 78 145 101 228 52z m294
-126 c0 -89 -2 -100 -17 -97 -21 4 -31 36 -32 110 -1 69 5 88 30 88 17 0 19
-9 19 -101z"/>
<path d="M5473 6410 c0 -47 2 -66 4 -42 2 23 2 61 0 85 -2 23 -4 4 -4 -43z"/>
<path d="M3772 4382 c-9 -6 -12 -30 -10 -78 l3 -69 58 2 c63 2 84 13 98 52 12
30 -5 78 -30 85 -39 11 -107 16 -119 8z"/>
<path d="M5082 4385 c-43 -19 -62 -66 -62 -152 0 -127 27 -173 103 -173 48 0
73 13 91 49 37 71 27 218 -17 260 -30 28 -75 34 -115 16z"/>
<path d="M6687 4383 c-4 -3 -7 -37 -7 -75 l0 -68 53 0 c63 0 98 16 109 51 14
42 -5 76 -49 88 -43 12 -96 14 -106 4z"/>
<path d="M7818 4384 c-9 -8 -11 -138 -3 -145 10 -10 126 8 139 21 28 29 29 65
3 95 -19 23 -34 29 -78 33 -30 2 -57 0 -61 -4z"/>
</g>
</svg>
